<?xml version="1.0" encoding="utf-8"?>
<!-- Generator: Adobe Illustrator 17.0.0, SVG Export Plug-In . SVG Version: 6.00 Build 0)  -->
<!DOCTYPE svg PUBLIC "-//W3C//DTD SVG 1.1//EN" "http://www.w3.org/Graphics/SVG/1.1/DTD/svg11.dtd">
<svg version="1.1" id="Capa_1" xmlns="http://www.w3.org/2000/svg" xmlns:xlink="http://www.w3.org/1999/xlink" x="0px" y="0px"
	 width="50px" height="50px" viewBox="0 0 50 50" enable-background="new 0 0 50 50" xml:space="preserve">
<g>
	<circle fill="#C3002F" cx="25" cy="24.941" r="10.772"/>
	<polygon fill="#FFFFFF" points="24.908,15.517 28.994,22.593 33.079,29.668 24.908,29.668 16.739,29.668 20.824,22.593 	"/>
	<g>
		<g>
			<path fill="#A09FA2" d="M44.885,30.067c-0.506,2.857-1.909,6.056-5.257,8.571l0,0.001l-0.002,0.001
				c-0.007,0.005-0.014,0.012-0.021,0.017l0.894,0.894c1.301,1.304,3.215,1.124,4.252-0.398c0,0,2.961-4.35,4.382-9.335
				C47.997,30.373,46.444,30.936,44.885,30.067z"/>
			
				<rect x="39.598" y="38.654" transform="matrix(-0.6905 -0.7234 0.7234 -0.6905 38.985 93.991)" fill="#A09FA2" width="0.008" height="0.001"/>
			<polygon fill="#A09FA2" points="38.195,37.247 38.194,37.247 38.193,37.247 			"/>
			<path fill="#A09FA2" d="M44.706,10.844c-1.039-1.52-2.957-1.698-4.259-0.396l-3.105,3.105c-1.302,1.302-1.512,3.608-0.468,5.125
				c0,0,1.918,2.783,1.918,6.346c0,3.54-1.878,6.291-1.878,6.291c-1.038,1.521-0.823,3.83,0.48,5.131l0.8,0.8
				c0.034-0.013,6.849-2.675,4.592-14.283c0,0-0.524-2.249,1.959-2.723c2.481-0.472,3.906,3.324,1.177,4.899l-0.505-1.668
				c0,0,0.59-0.106,0.55-0.768c0,0-0.098-0.699-0.851-0.589c0,0-0.599,0.135-0.523,0.8c0,0,0.72,2.568,0.492,5.707
				c1.921,1.003,3.362,0.149,4.454-0.471c0.211-1.043,0.338-2.095,0.338-3.125C49.878,18.399,44.706,10.844,44.706,10.844z"/>
			<path fill="#A09FA2" d="M49.542,28.149c-0.001,0-0.001,0-0.002,0.001C49.536,28.173,49.538,28.173,49.542,28.149z"/>
		</g>
		<g>
			<path fill="#A09FA2" d="M5.115,19.933c0.505-2.856,1.909-6.055,5.256-8.571l0-0.001l0.002-0.001
				c0.007-0.005,0.014-0.011,0.021-0.017l-0.894-0.894c-1.302-1.304-3.216-1.123-4.252,0.398c0,0-2.961,4.349-4.382,9.335
				C2.003,19.627,3.556,19.064,5.115,19.933z"/>
			
				<rect x="10.394" y="11.345" transform="matrix(0.6989 0.7152 -0.7152 0.6989 11.2449 -4.0208)" fill="#A09FA2" width="0.008" height="0"/>
			<polygon fill="#A09FA2" points="11.805,12.753 11.805,12.753 11.807,12.752 			"/>
			<path fill="#A09FA2" d="M5.293,39.155c1.04,1.52,2.958,1.698,4.259,0.396l3.104-3.105c1.303-1.302,1.512-3.608,0.468-5.125
				c0,0-1.918-2.783-1.918-6.346c0-3.54,1.878-6.291,1.878-6.291c1.038-1.521,0.823-3.83-0.48-5.131l-0.8-0.8
				c-0.034,0.013-6.849,2.676-4.592,14.283c0,0,0.524,2.249-1.959,2.723c-2.482,0.472-3.907-3.324-1.178-4.898l0.505,1.668
				c0,0-0.59,0.106-0.551,0.768c0,0,0.099,0.699,0.851,0.589c0,0,0.599-0.135,0.523-0.8c0,0-0.72-2.568-0.492-5.707
				C2.992,20.376,1.552,21.23,0.46,21.85c-0.211,1.043-0.338,2.095-0.338,3.125C0.122,31.601,5.293,39.155,5.293,39.155z"/>
			<path fill="#A09FA2" d="M0.457,21.851c0.001-0.001,0.002-0.001,0.002-0.001C0.464,21.827,0.463,21.827,0.457,21.851z"/>
		</g>
	</g>
	<g>
		<g>
			<path fill="#A09FA2" d="M19.933,44.885c-2.856-0.505-6.055-1.909-8.571-5.256l-0.001-0.001l-0.001-0.002
				c-0.006-0.008-0.011-0.014-0.017-0.021l-0.894,0.893c-1.304,1.302-1.123,3.216,0.398,4.252c0,0,4.35,2.961,9.335,4.382
				C19.627,47.997,19.064,46.444,19.933,44.885z"/>
			
				<rect x="11.341" y="39.602" transform="matrix(0.6892 -0.7246 0.7246 0.6892 -25.1682 20.5278)" fill="#A09FA2" width="0.008" height="0.001"/>
			<polygon fill="#A09FA2" points="12.753,38.195 12.753,38.195 12.752,38.193 			"/>
			<path fill="#A09FA2" d="M39.155,44.706c1.521-1.039,1.698-2.957,0.396-4.259l-3.105-3.104c-1.301-1.303-3.608-1.512-5.124-0.468
				c0,0-2.783,1.918-6.346,1.918c-3.54,0-6.291-1.878-6.291-1.878c-1.521-1.038-3.83-0.823-5.131,0.48l-0.8,0.8
				c0.013,0.034,2.676,6.849,14.283,4.592c0,0,2.249-0.524,2.724,1.959c0.472,2.482-3.324,3.906-4.899,1.178l1.668-0.506
				c0,0,0.106,0.59,0.768,0.551c0,0,0.698-0.098,0.589-0.851c0,0-0.135-0.599-0.8-0.523c0,0-2.569,0.72-5.707,0.492
				c-1.002,1.921-0.149,3.361,0.471,4.454c1.043,0.21,2.094,0.338,3.125,0.338C31.601,49.878,39.155,44.706,39.155,44.706z"/>
			<path fill="#A09FA2" d="M21.851,49.543c0-0.002,0-0.002-0.001-0.002C21.826,49.536,21.826,49.537,21.851,49.543z"/>
		</g>
		<g>
			<path fill="#A09FA2" d="M30.067,5.115c2.857,0.505,6.055,1.909,8.571,5.256l0.001,0.001l0.001,0.002
				c0.006,0.007,0.012,0.014,0.017,0.021l0.894-0.894c1.304-1.302,1.124-3.216-0.398-4.252c0,0-4.35-2.961-9.335-4.382
				C30.373,2.003,30.937,3.556,30.067,5.115z"/>
			
				<rect x="38.651" y="10.398" transform="matrix(-0.7276 0.686 -0.686 -0.7276 73.9128 -8.5545)" fill="#A09FA2" width="0.008" height="0.001"/>
			<polygon fill="#A09FA2" points="37.247,11.804 37.247,11.805 37.247,11.807 			"/>
			<path fill="#A09FA2" d="M10.845,5.294c-1.52,1.039-1.698,2.957-0.396,4.259l3.105,3.105c1.302,1.302,3.608,1.512,5.125,0.468
				c0,0,2.783-1.918,6.346-1.918c3.54,0,6.292,1.878,6.292,1.878c1.521,1.038,3.83,0.823,5.131-0.48l0.801-0.8
				c-0.013-0.034-2.676-6.849-14.284-4.592c0,0-2.249,0.524-2.723-1.959c-0.472-2.482,3.324-3.907,4.899-1.178L23.47,4.582
				c0,0-0.106-0.59-0.768-0.551c0,0-0.699,0.099-0.589,0.851c0,0,0.135,0.599,0.8,0.524c0,0,2.568-0.72,5.706-0.492
				c1.003-1.922,0.149-3.362-0.471-4.454c-1.043-0.211-2.095-0.338-3.125-0.338C18.399,0.122,10.845,5.294,10.845,5.294z"/>
			<path fill="#A09FA2" d="M28.149,0.457c0,0.001,0.001,0.002,0.001,0.002C28.173,0.464,28.173,0.463,28.149,0.457z"/>
		</g>
	</g>
</g>
</svg>
